<?xml version="1.0" encoding="UTF-8" standalone="no"?>
<svg
   xmlns:dc="http://purl.org/dc/elements/1.1/"
   xmlns:cc="http://creativecommons.org/ns#"
   xmlns:rdf="http://www.w3.org/1999/02/22-rdf-syntax-ns#"
   xmlns:svg="http://www.w3.org/2000/svg"
   xmlns="http://www.w3.org/2000/svg"
   xmlns:sodipodi="http://sodipodi.sourceforge.net/DTD/sodipodi-0.dtd"
   xmlns:inkscape="http://www.inkscape.org/namespaces/inkscape"
   viewBox="0 0 540.40002 400"
   height="400"
   width="540.40002"
   xml:space="preserve"
   version="1.1"
   id="svg2"
   inkscape:version="0.48.4 r9939"
   sodipodi:docname="GN_logo_f.svg"><sodipodi:namedview
     pagecolor="#ffffff"
     bordercolor="#666666"
     borderopacity="1"
     objecttolerance="10"
     gridtolerance="10"
     guidetolerance="10"
     inkscape:pageopacity="0"
     inkscape:pageshadow="2"
     inkscape:window-width="1301"
     inkscape:window-height="744"
     id="namedview3213"
     showgrid="false"
     inkscape:zoom="0.51491287"
     inkscape:cx="793.70001"
     inkscape:cy="561.26001"
     inkscape:window-x="65"
     inkscape:window-y="24"
     inkscape:window-maximized="1"
     inkscape:current-layer="svg2" /><metadata
     id="metadata8"><rdf:RDF><cc:Work
         rdf:about=""><dc:format>image/svg+xml</dc:format><dc:type
           rdf:resource="http://purl.org/dc/dcmitype/StillImage" /><dc:title></dc:title></cc:Work></rdf:RDF></metadata><defs
     id="defs6"><clipPath
       id="clipPath16"
       clipPathUnits="userSpaceOnUse"><path
         id="path18"
         d="m 0,841.89 1190.55,0 L 1190.55,0 0,0 0,841.89 z"
         inkscape:connector-curvature="0" /></clipPath><clipPath
       id="clipPath36"
       clipPathUnits="userSpaceOnUse"><path
         id="path38"
         d="m 551.414,537.504 92.67,0 0,-48.34 -92.67,0 0,48.34 z"
         inkscape:connector-curvature="0" /></clipPath><clipPath
       id="clipPath52"
       clipPathUnits="userSpaceOnUse"><path
         id="path54"
         d="m 477.242,463.374 242.146,0 0,-145.256 -242.146,0 0,145.256 z"
         inkscape:connector-curvature="0" /></clipPath><clipPath
       id="clipPath122"
       clipPathUnits="userSpaceOnUse"><path
         id="path124"
         d="m 551.414,537.504 92.67,0 0,-48.34 -92.67,0 0,48.34 z"
         inkscape:connector-curvature="0" /></clipPath><clipPath
       id="clipPath138"
       clipPathUnits="userSpaceOnUse"><path
         id="path140"
         d="m 477.242,463.374 242.146,0 0,-145.256 -242.146,0 0,145.256 z"
         inkscape:connector-curvature="0" /></clipPath></defs><g
     transform="matrix(1.3333333,0,0,-1.3333333,-521.99368,753.22616)"
     id="g10"><g
       id="g12"><g
         clip-path="url(#clipPath16)"
         id="g14"><g
           transform="translate(590.5767,283.3525)"
           id="g20"><path
             id="path22"
             style="fill:#2a1b19;fill-opacity:1;fill-rule:nonzero;stroke:none"
             d="m 0,0 c -12.497,10.543 -18.065,12.271 -54.292,23.515 -4.618,1.433 -9.699,3.009 -15.313,4.767 -18.928,5.928 -31.879,15.843 -38.495,29.472 -11.727,24.16 -1.883,54.51 11.162,88.801 15.213,39.988 -11.397,77.776 -16.068,82.553 l 14.677,17.939 c 4.585,-4.483 25.504,-13.666 50.603,-13.666 18.826,0.001 35.03,5.105 48.161,15.174 l 7.301,5.596 7.301,-5.596 c 13.134,-10.069 29.339,-15.174 48.164,-15.174 25.336,0 45.998,9.173 50.8,13.863 l 14.678,-17.938 C 123.833,224.357 97.32,186.229 112.414,146.555 125.458,112.264 135.302,81.914 123.576,57.754 116.96,44.125 104.009,34.21 85.082,28.282 79.468,26.524 74.386,24.948 69.769,23.515 33.541,12.271 27.974,10.543 15.476,0 L 7.738,-6.528 0,0 z"
             inkscape:connector-curvature="0" /></g><g
           transform="translate(598.3125,522.3838)"
           id="g24"><path
             id="path26"
             style="fill:#761227;fill-opacity:1;fill-rule:nonzero;stroke:none"
             d="m 0,0 c -45.465,-34.858 -106.593,-7.326 -106.593,-7.326 0,0 30.817,-42.941 13.135,-89.417 -17.681,-46.478 -30.311,-86.893 19.703,-102.554 50.013,-15.659 57.59,-16.923 73.755,-30.562 l 0.002,0 c 16.168,13.639 23.744,14.903 73.758,30.562 50.013,15.661 37.383,56.076 19.701,102.554 -17.68,46.476 13.135,89.417 13.135,89.417 0,0 -61.127,-27.532 -106.594,7.326 L 0,0 z"
             inkscape:connector-curvature="0" /></g><g
           transform="translate(491.7197,515.0576)"
           id="g28"><path
             id="path30"
             style="fill:#b81c3d;fill-opacity:1;fill-rule:nonzero;stroke:none"
             d="m 0,0 c 0,0 30.816,-42.94 13.135,-89.417 -17.681,-46.478 -30.311,-86.893 19.702,-102.554 50.014,-15.659 57.591,-16.923 73.756,-30.562 l 0,229.859 C 61.127,-27.532 0,0 0,0"
             inkscape:connector-curvature="0" /></g><g
           id="g32"><g
             id="g34" /><g
             id="g40"><g
               style="opacity:0.19999701"
               id="g42"
               clip-path="url(#clipPath36)"><g
                 id="g44"
                 transform="translate(644.0469,517.2197)"><path
                   id="path46"
                   style="fill:#2a1b19;fill-opacity:1;fill-rule:nonzero;stroke:none"
                   d="m 0,0 c -13.645,1.374 -25.721,5.697 -36.023,12.923 l -2.291,0.708 -0.231,0.182 0.629,0.496 c -0.172,0.129 -0.348,0.249 -0.518,0.379 l -7.3,5.596 -7.302,-5.596 c -0.361,-0.278 -0.734,-0.537 -1.1,-0.807 l 0.087,-0.068 -0.232,-0.182 -0.342,-0.106 c -10.761,-7.784 -23.5,-12.349 -37.983,-13.626 -0.01,-0.092 -0.025,-0.185 -0.027,-0.28 -0.021,-1.298 0.794,-2.462 2.021,-2.886 l 15.799,-5.453 1.65,-16.632 c 0.128,-1.291 1.072,-2.353 2.339,-2.633 0.216,-0.047 0.432,-0.071 0.647,-0.071 1.045,0 2.036,0.548 2.583,1.476 l 19.282,32.677 2.015,1.591 2.014,-1.591 19.281,-32.677 c 0.549,-0.928 1.539,-1.476 2.584,-1.476 0.215,0 0.432,0.024 0.647,0.071 1.267,0.28 2.21,1.342 2.339,2.633 l 1.651,16.632 15.797,5.453 c 1.226,0.424 2.043,1.588 2.021,2.886 C 0.035,-0.252 0.02,-0.126 0,0"
                   inkscape:connector-curvature="0" /></g></g></g></g><g
           id="g48"><g
             id="g50" /><g
             id="g56"><g
               style="opacity:0.19999701"
               id="g58"
               clip-path="url(#clipPath52)"><g
                 id="g60"
                 transform="translate(706.3887,350.0889)"><path
                   id="path62"
                   style="fill:#2a1b19;fill-opacity:1;fill-rule:nonzero;stroke:none"
                   d="M 0,0 -42.984,4.781 0,48.382 0,0 z m -79.688,59.481 38.922,-4.328 -33.326,-33.878 -5.596,38.206 z m -53.531,-27.196 c 0,-15.192 -10.299,-26.22 -24.489,-26.22 -14.112,0 -24.754,11.387 -24.754,26.487 l 0,0.265 c 0,15.193 10.299,26.22 24.488,26.22 14.113,0 24.755,-11.387 24.755,-26.485 l 0,-0.267 z M -3.398,79.818 c -0.639,1.68 -1.198,3.357 -1.694,5.029 l -77.32,8.599 -0.971,-8.729 -4.183,28.568 -34.157,-5.002 4.556,-31.109 c -10.792,10.077 -25.052,15.585 -40.541,15.585 -20.58,0 -39.082,-10.094 -49.922,-26.792 l 0,39.193 -0.475,0 c -0.021,-8.136 -1.352,-16.686 -4.645,-25.342 -13.045,-34.291 -22.889,-64.64 -11.162,-88.8 0.51,-1.05 1.07,-2.07 1.655,-3.076 l 14.627,0 0,10.866 c 1.941,-2.987 4.147,-5.79 6.602,-8.382 11.04,-11.66 26.33,-18.082 43.054,-18.082 21.66,0 41.342,11.536 51.785,29.874 l 1.453,-9.916 9.215,1.349 -1.834,-16.483 82.162,-9.139 c 7.349,4.003 13.281,8.914 17.771,14.695 l 0.58,5.218 2.951,0 c 0.584,1.006 1.145,2.026 1.655,3.076 11.726,24.16 1.882,54.509 -11.162,88.8"
                   inkscape:connector-curvature="0" /></g></g></g></g><path
           id="path64"
           style="fill:#2a1b19;fill-opacity:1;fill-rule:nonzero;stroke:none"
           d="m 566.264,472.676 -8.125,0 0,29.338 8.125,0 0,-29.338 z"
           inkscape:connector-curvature="0" /><path
           id="path66"
           style="fill:#2a1b19;fill-opacity:1;fill-rule:nonzero;stroke:none"
           d="m 533.879,465.699 -8.125,0 0,29.338 8.125,0 0,-29.338 z"
           inkscape:connector-curvature="0" /><g
           transform="translate(699.5996,423.0635)"
           id="g68"><path
             id="path70"
             style="fill:#2a1b19;fill-opacity:1;fill-rule:nonzero;stroke:none"
             d="m 0,0 -185.789,0 0,58.867 98.662,-9.255 1.57,-2.682 32.057,6.375 26.834,5.562 L 0,0 z"
             inkscape:connector-curvature="0" /></g><g
           transform="translate(704.4844,358.665)"
           id="g72"><path
             id="path74"
             style="fill:#2a1b19;fill-opacity:1;fill-rule:nonzero;stroke:none"
             d="M 0,0 -42.984,4.781 0,48.382 0,0 z m -79.688,59.481 38.92,-4.328 -33.324,-33.878 -5.596,38.206 z M -133.22,32.285 c 0,-15.192 -10.299,-26.22 -24.488,-26.22 -14.113,0 -24.755,11.387 -24.755,26.487 l 0,0.265 c 0,15.193 10.299,26.22 24.488,26.22 14.113,0 24.755,-11.387 24.755,-26.485 l 0,-0.267 z m 167.74,-10.754 0,8.626 50.869,0 0,33.588 -50.869,0 0,7.827 56.863,0 0,33.588 -91.383,0 0,-20.88 -82.412,9.166 -0.973,-8.729 -4.183,28.568 -34.156,-5.002 4.556,-31.109 c -10.792,10.077 -25.052,15.585 -40.54,15.585 -20.581,0 -39.083,-10.094 -49.923,-26.792 l 0,39.193 -34.254,0 0,-52.025 -40.897,52.025 -27.685,0 0,-117.218 34.254,0 0,53.804 42.368,-53.804 26.214,0 0,10.866 c 1.941,-2.987 4.147,-5.79 6.602,-8.382 11.04,-11.66 26.33,-18.082 43.054,-18.082 21.66,0 41.342,11.536 51.786,29.874 l 1.451,-9.916 9.215,1.349 -1.832,-16.483 98.101,-10.911 2.412,21.685 88.891,0 0,33.589 -57.529,0 z"
             inkscape:connector-curvature="0" /></g><g
           transform="translate(727.0039,368.1963)"
           id="g76"><path
             id="path78"
             style="fill:#f0ac17;fill-opacity:1;fill-rule:nonzero;stroke:none"
             d="m 0,0 0,32.626 50.869,0 0,9.588 -50.869,0 0,31.827 56.863,0 0,9.588 -67.383,0 0,-93.218 68.049,0 0,9.589 L 0,0 z m -95.379,61.265 57.973,-6.448 -68.436,-69.567 -0.781,-7.014 74.25,-8.257 1.045,9.396 -60.088,6.683 68.566,69.551 0.782,7.015 -72.264,8.038 -1.047,-9.397 z m -35.252,27.352 13.508,-92.234 10.41,1.524 -13.51,92.235 -10.408,-1.525 z M -143.74,22.754 c 0,-21.174 -15.181,-38.22 -36.488,-38.22 -21.307,0 -36.754,17.313 -36.754,38.487 l 0,0.265 c 0,21.175 15.18,38.22 36.487,38.22 21.307,0 36.755,-17.313 36.755,-38.485 l 0,-0.267 z m -36.488,48.474 c -28.365,0 -47.674,-22.506 -47.674,-48.207 l 0,-0.267 c 0,-25.702 19.043,-47.942 47.407,-47.942 28.366,0 47.675,22.506 47.675,48.209 0.133,0.132 0.133,0.132 0,0.265 0,25.702 -19.043,47.942 -47.408,47.942 m -72.177,-62.306 -58.727,74.707 -9.855,0 0,-93.218 10.254,0 0,76.44 60.192,-76.44 8.39,0 0,93.218 -10.254,0 0,-74.707 z"
             inkscape:connector-curvature="0" /></g><g
           transform="translate(532.3247,487.0234)"
           id="g80"><path
             id="path82"
             style="fill:#2a1b19;fill-opacity:1;fill-rule:nonzero;stroke:none"
             d="M 0,0 C -0.364,1.322 -0.701,1.545 -2.111,1.545 -2.715,1.545 -3.05,1.317 -3.153,1.184 -3.257,1.047 -3.416,0.839 -3.553,0 L 0,0 z m 80.148,-22.004 8.457,23.251 -8.457,0 0,-23.251 z m -51.141,-4.645 c -7.403,0 -13.221,4.034 -15.411,10.139 -0.673,-1.915 -1.713,-3.662 -3.292,-5.27 -4.177,-4.314 -8.83,-4.869 -12.415,-4.869 -4.778,0 -8.686,1.586 -11.95,4.85 -4.464,4.464 -4.458,10.09 -4.453,15.531 l 0,1.175 c -0.005,5.441 -0.011,11.067 4.453,15.531 3.31,3.309 7.106,4.85 11.95,4.85 7.598,0 12.293,-3.63 14.766,-8.181 l 0,7.883 14.686,0 0,-25.733 c 0,-2.163 1.003,-2.163 1.666,-2.163 0.854,0 1.765,0.167 1.765,2.163 l 0,25.733 62.833,0 -4.77,-13.113 4.77,13.113 10.902,0 9.838,-27.04 0,27.04 16.998,0 c 9.887,0 15.061,-7.227 15.061,-14.367 0,-4.104 -1.768,-7.771 -4.844,-10.264 l 8.664,-16.711 -16.906,0 -4.287,9.018 0,-9.018 -25.059,0 -1.639,5.262 -6.494,0 -1.736,-5.262 -28.641,0 0,27.599 -6.258,0 0,-27.599 -14.686,0 0,9.963 c -2.221,-6.109 -8.157,-10.26 -15.511,-10.26"
             inkscape:connector-curvature="0" /></g><g
           transform="translate(628.4277,476.1807)"
           id="g84"><path
             id="path86"
             style="fill:#f0ac17;fill-opacity:1;fill-rule:nonzero;stroke:none"
             d="M 0,0 3.178,9.431 6.156,0 0,0 z m -0.396,22.833 -12.856,-35.342 9.084,0 1.736,5.262 10.871,0 1.637,-5.262 9.084,0 -12.855,35.342 -6.701,0 z m 35.238,-14.94 -4.914,0 0,7.147 4.914,0 c 2.383,0 3.773,-1.737 3.773,-3.574 0,-1.836 -1.39,-3.573 -3.773,-3.573 m 6.701,-5.66 c 2.781,1.39 5.758,4.418 5.758,9.233 0,5.807 -4.219,11.367 -12.061,11.367 l -13.998,0 0,-35.342 8.686,0 0,13.155 2.929,0 6.254,-13.155 10.077,0 -7.645,14.742 z m -51.811,20.6 -26.059,0 0,-7.743 8.686,0 0,-27.599 8.686,0 0,27.599 8.687,0 0,7.743 z m -38.317,-35.342 8.687,0 0,35.342 -8.687,0 0,-35.342 z M -62.331,0.1 c 0,-3.277 -1.886,-5.163 -4.765,-5.163 -2.879,0 -4.666,1.886 -4.666,5.163 l 0,22.733 -8.686,0 0,-22.933 c 0,-7.743 6.006,-12.707 13.352,-12.707 7.346,0 13.452,4.964 13.452,12.707 l 0,22.933 -8.687,0 0,-22.733 z m -35.883,0.496 5.212,0 0,-0.496 c 0,-1.341 -0.348,-2.781 -1.34,-3.773 -0.795,-0.844 -2.035,-1.39 -3.872,-1.39 -1.589,0 -2.78,0.645 -3.425,1.489 -0.794,1.043 -1.291,2.283 -1.291,8.736 0,6.453 0.497,7.645 1.291,8.687 0.645,0.843 1.836,1.539 3.425,1.539 2.978,0 4.368,-1.291 5.063,-3.972 l 8.736,0 c -0.844,5.808 -4.716,11.715 -13.799,11.715 -4.269,0 -7.247,-1.39 -9.828,-3.971 -3.723,-3.723 -3.574,-8.686 -3.574,-13.998 0,-5.311 -0.149,-10.274 3.574,-13.997 2.581,-2.582 5.708,-3.972 9.828,-3.972 3.872,0 7.247,0.844 10.275,3.972 2.68,2.73 3.573,6.056 3.573,11.764 l 0,4.914 -13.848,0 0,-7.247 z"
             inkscape:connector-curvature="0" /></g><path
           id="path88"
           style="fill:#2a1b19;fill-opacity:1;fill-rule:nonzero;stroke:none"
           d="m 599.225,469.993 -8.125,0 0,20.75 8.125,0 0,-20.75 z"
           inkscape:connector-curvature="0" /><g
           transform="translate(621.6289,498.627)"
           id="g90"><path
             id="path92"
             style="fill:#2a1b19;fill-opacity:1;fill-rule:nonzero;stroke:none"
             d="m 0,0 c -1.045,0 -2.035,0.548 -2.584,1.476 l -19.281,32.676 -2.014,1.592 -2.015,-1.592 L -45.176,1.476 C -45.723,0.548 -46.714,0 -47.759,0 c -0.215,0 -0.431,0.023 -0.647,0.07 -1.267,0.281 -2.211,1.343 -2.339,2.634 l -1.65,16.632 -15.799,5.453 c -1.227,0.424 -2.042,1.588 -2.021,2.886 0.021,1.297 0.874,2.433 2.114,2.816 l 36.238,11.196 0.232,0.181 -13.635,10.772 c -0.369,-0.159 -0.771,-0.243 -1.18,-0.243 -0.076,0 -0.152,0.003 -0.228,0.009 -0.969,0.073 -1.841,0.612 -2.342,1.444 l -4.572,7.588 c -0.658,1.069 -0.712,2.341 -0.13,3.381 0.558,0.999 1.632,1.619 2.802,1.619 0.38,0 0.769,-0.063 1.155,-0.19 l 8.415,-2.695 c 0.924,-0.296 1.647,-1.021 1.943,-1.945 0.149,-0.466 0.179,-0.956 0.098,-1.425 l 15.426,-12.189 15.424,12.188 c -0.08,0.469 -0.051,0.959 0.098,1.425 0.296,0.925 1.019,1.65 1.943,1.946 l 8.435,2.701 c 0.368,0.121 0.756,0.184 1.137,0.184 1.17,0 2.244,-0.621 2.803,-1.621 0.58,-1.042 0.525,-2.315 -0.148,-3.407 L 1.258,53.85 C 0.756,53.018 -0.117,52.479 -1.084,52.406 -1.16,52.4 -1.236,52.397 -1.313,52.397 c -0.41,0 -0.81,0.084 -1.181,0.243 l -13.633,-10.772 0.231,-0.181 36.238,-11.196 c 1.238,-0.383 2.092,-1.519 2.113,-2.816 0.022,-1.298 -0.795,-2.462 -2.021,-2.886 L 4.637,19.336 2.986,2.704 C 2.857,1.413 1.914,0.351 0.646,0.07 0.432,0.023 0.215,0 0,0"
             inkscape:connector-curvature="0" /></g><g
           transform="translate(624.5645,562.0244)"
           id="g94"><path
             id="path96"
             style="fill:#ce953a;fill-opacity:1;fill-rule:nonzero;stroke:none"
             d="m 0,0 -8.434,-2.702 c 0,0 0.942,-1.258 -0.865,-2.685 l -24.078,-19.025 -36.774,-11.36 17.616,-6.081 1.84,-18.544 19.567,33.159 24.069,19.016 C -5.252,-6.793 -4.248,-8 -4.248,-8 l 4.572,7.588 C 0.543,-0.056 0.396,0.13 0,0"
             inkscape:connector-curvature="0" /></g><g
           transform="translate(570.9341,562.0244)"
           id="g98"><path
             id="path100"
             style="fill:#ce953a;fill-opacity:1;fill-rule:nonzero;stroke:none"
             d="m 0,0 8.434,-2.702 c 0,0 -0.942,-1.258 0.865,-2.685 L 33.376,-24.412 70.15,-35.772 52.535,-41.853 50.695,-60.397 31.128,-27.238 7.059,-8.222 C 5.252,-6.793 4.248,-8 4.248,-8 l -4.572,7.588 C -0.543,-0.056 -0.396,0.13 0,0"
             inkscape:connector-curvature="0" /></g><g
           transform="translate(604.3105,537.6123)"
           id="g102"><path
             id="path104"
             style="fill:#f0ac17;fill-opacity:1;fill-rule:nonzero;stroke:none"
             d="M 0,0 -3.648,2.883 13.195,16.19 c 1.807,1.429 2.811,0.222 2.811,0.222 L 20.578,24 c 0.219,0.356 0.072,0.542 -0.324,0.412 L 11.82,21.71 c 0,0 0.942,-1.258 -0.865,-2.685 L -6.561,5.185 -24.078,19.025 c -1.806,1.427 -0.865,2.685 -0.865,2.685 l -8.433,2.702 c -0.397,0.13 -0.543,-0.056 -0.325,-0.412 l 4.573,-7.588 c 0,0 1.003,1.207 2.81,-0.222 L -9.474,2.884 -13.124,0 l -36.773,-11.36 17.616,-6.08 1.84,-18.545 19.566,33.159 4.314,3.408 4.313,-3.408 19.566,-33.159 1.84,18.545 17.615,6.08 L 0,0 z"
             inkscape:connector-curvature="0" /></g><g
           transform="translate(590.5767,283.3525)"
           id="g106"><path
             id="path108"
             style="fill:#2a1b19;fill-opacity:1;fill-rule:nonzero;stroke:none"
             d="m 0,0 c -12.497,10.543 -18.065,12.271 -54.292,23.515 -4.618,1.433 -9.699,3.009 -15.313,4.767 -18.928,5.928 -31.879,15.843 -38.495,29.472 -11.727,24.16 -1.883,54.51 11.162,88.801 15.213,39.988 -11.397,77.776 -16.068,82.553 l 14.677,17.939 c 4.585,-4.483 25.504,-13.666 50.603,-13.666 18.826,0.001 35.03,5.105 48.161,15.174 l 7.301,5.596 7.301,-5.596 c 13.134,-10.069 29.339,-15.174 48.164,-15.174 25.336,0 45.998,9.173 50.8,13.863 l 14.678,-17.938 C 123.833,224.357 97.32,186.229 112.414,146.555 125.458,112.264 135.302,81.914 123.576,57.754 116.96,44.125 104.009,34.21 85.082,28.282 79.468,26.524 74.386,24.948 69.769,23.515 33.541,12.271 27.974,10.543 15.476,0 L 7.738,-6.528 0,0 z"
             inkscape:connector-curvature="0" /></g><g
           transform="translate(598.3125,522.3838)"
           id="g110"><path
             id="path112"
             style="fill:#761227;fill-opacity:1;fill-rule:nonzero;stroke:none"
             d="m 0,0 c -45.465,-34.858 -106.593,-7.326 -106.593,-7.326 0,0 30.817,-42.941 13.135,-89.417 -17.681,-46.478 -30.311,-86.893 19.703,-102.554 50.013,-15.659 57.59,-16.923 73.755,-30.562 l 0.002,0 c 16.168,13.639 23.744,14.903 73.758,30.562 50.013,15.661 37.383,56.076 19.701,102.554 -17.68,46.476 13.135,89.417 13.135,89.417 0,0 -61.127,-27.532 -106.594,7.326 L 0,0 z"
             inkscape:connector-curvature="0" /></g><g
           transform="translate(491.7197,515.0576)"
           id="g114"><path
             id="path116"
             style="fill:#b81c3d;fill-opacity:1;fill-rule:nonzero;stroke:none"
             d="m 0,0 c 0,0 30.816,-42.94 13.135,-89.417 -17.681,-46.478 -30.311,-86.893 19.702,-102.554 50.014,-15.659 57.591,-16.923 73.756,-30.562 l 0,229.859 C 61.127,-27.532 0,0 0,0"
             inkscape:connector-curvature="0" /></g><g
           id="g118"><g
             id="g120" /><g
             id="g126"><g
               style="opacity:0.19999701"
               id="g128"
               clip-path="url(#clipPath122)"><g
                 id="g130"
                 transform="translate(644.0469,517.2197)"><path
                   id="path132"
                   style="fill:#2a1b19;fill-opacity:1;fill-rule:nonzero;stroke:none"
                   d="m 0,0 c -13.645,1.374 -25.721,5.697 -36.023,12.923 l -2.291,0.708 -0.231,0.182 0.629,0.496 c -0.172,0.129 -0.348,0.249 -0.518,0.379 l -7.3,5.596 -7.302,-5.596 c -0.361,-0.278 -0.734,-0.537 -1.1,-0.807 l 0.087,-0.068 -0.232,-0.182 -0.342,-0.106 c -10.761,-7.784 -23.5,-12.349 -37.983,-13.626 -0.01,-0.092 -0.025,-0.185 -0.027,-0.28 -0.021,-1.298 0.794,-2.462 2.021,-2.886 l 15.799,-5.453 1.65,-16.632 c 0.128,-1.291 1.072,-2.353 2.339,-2.633 0.216,-0.047 0.432,-0.071 0.647,-0.071 1.045,0 2.036,0.548 2.583,1.476 l 19.282,32.677 2.015,1.591 2.014,-1.591 19.281,-32.677 c 0.549,-0.928 1.539,-1.476 2.584,-1.476 0.215,0 0.432,0.024 0.647,0.071 1.267,0.28 2.21,1.342 2.339,2.633 l 1.651,16.632 15.797,5.453 c 1.226,0.424 2.043,1.588 2.021,2.886 C 0.035,-0.252 0.02,-0.126 0,0"
                   inkscape:connector-curvature="0" /></g></g></g></g><g
           id="g134"><g
             id="g136" /><g
             id="g142"><g
               style="opacity:0.19999701"
               id="g144"
               clip-path="url(#clipPath138)"><g
                 id="g146"
                 transform="translate(706.3887,350.0889)"><path
                   id="path148"
                   style="fill:#2a1b19;fill-opacity:1;fill-rule:nonzero;stroke:none"
                   d="M 0,0 -42.984,4.781 0,48.382 0,0 z m -79.688,59.481 38.922,-4.328 -33.326,-33.878 -5.596,38.206 z m -53.531,-27.196 c 0,-15.192 -10.299,-26.22 -24.489,-26.22 -14.112,0 -24.754,11.387 -24.754,26.487 l 0,0.265 c 0,15.193 10.299,26.22 24.488,26.22 14.113,0 24.755,-11.387 24.755,-26.485 l 0,-0.267 z M -3.398,79.818 c -0.639,1.68 -1.198,3.357 -1.694,5.029 l -77.32,8.599 -0.971,-8.729 -4.183,28.568 -34.157,-5.002 4.556,-31.109 c -10.792,10.077 -25.052,15.585 -40.541,15.585 -20.58,0 -39.082,-10.094 -49.922,-26.792 l 0,39.193 -0.475,0 c -0.021,-8.136 -1.352,-16.686 -4.645,-25.342 -13.045,-34.291 -22.889,-64.64 -11.162,-88.8 0.51,-1.05 1.07,-2.07 1.655,-3.076 l 14.627,0 0,10.866 c 1.941,-2.987 4.147,-5.79 6.602,-8.382 11.04,-11.66 26.33,-18.082 43.054,-18.082 21.66,0 41.342,11.536 51.785,29.874 l 1.453,-9.916 9.215,1.349 -1.834,-16.483 82.162,-9.139 c 7.349,4.003 13.281,8.914 17.771,14.695 l 0.58,5.218 2.951,0 c 0.584,1.006 1.145,2.026 1.655,3.076 11.726,24.16 1.882,54.509 -11.162,88.8"
                   inkscape:connector-curvature="0" /></g></g></g></g><path
           id="path150"
           style="fill:#2a1b19;fill-opacity:1;fill-rule:nonzero;stroke:none"
           d="m 566.264,472.676 -8.125,0 0,29.338 8.125,0 0,-29.338 z"
           inkscape:connector-curvature="0" /><path
           id="path152"
           style="fill:#2a1b19;fill-opacity:1;fill-rule:nonzero;stroke:none"
           d="m 533.879,465.699 -8.125,0 0,29.338 8.125,0 0,-29.338 z"
           inkscape:connector-curvature="0" /><g
           transform="translate(699.5996,423.0635)"
           id="g154"><path
             id="path156"
             style="fill:#2a1b19;fill-opacity:1;fill-rule:nonzero;stroke:none"
             d="m 0,0 -185.789,0 0,58.867 98.662,-9.255 1.57,-2.682 32.057,6.375 26.834,5.562 L 0,0 z"
             inkscape:connector-curvature="0" /></g><g
           transform="translate(704.4844,358.665)"
           id="g158"><path
             id="path160"
             style="fill:#2a1b19;fill-opacity:1;fill-rule:nonzero;stroke:none"
             d="M 0,0 -42.984,4.781 0,48.382 0,0 z m -79.688,59.481 38.92,-4.328 -33.324,-33.878 -5.596,38.206 z M -133.22,32.285 c 0,-15.192 -10.299,-26.22 -24.488,-26.22 -14.113,0 -24.755,11.387 -24.755,26.487 l 0,0.265 c 0,15.193 10.299,26.22 24.488,26.22 14.113,0 24.755,-11.387 24.755,-26.485 l 0,-0.267 z m 167.74,-10.754 0,8.626 50.869,0 0,33.588 -50.869,0 0,7.827 56.863,0 0,33.588 -91.383,0 0,-20.88 -82.412,9.166 -0.973,-8.729 -4.183,28.568 -34.156,-5.002 4.556,-31.109 c -10.792,10.077 -25.052,15.585 -40.54,15.585 -20.581,0 -39.083,-10.094 -49.923,-26.792 l 0,39.193 -34.254,0 0,-52.025 -40.897,52.025 -27.685,0 0,-117.218 34.254,0 0,53.804 42.368,-53.804 26.214,0 0,10.866 c 1.941,-2.987 4.147,-5.79 6.602,-8.382 11.04,-11.66 26.33,-18.082 43.054,-18.082 21.66,0 41.342,11.536 51.786,29.874 l 1.451,-9.916 9.215,1.349 -1.832,-16.483 98.101,-10.911 2.412,21.685 88.891,0 0,33.589 -57.529,0 z"
             inkscape:connector-curvature="0" /></g><g
           transform="translate(727.0039,368.1963)"
           id="g162"><path
             id="path164"
             style="fill:#f0ac17;fill-opacity:1;fill-rule:nonzero;stroke:none"
             d="m 0,0 0,32.626 50.869,0 0,9.588 -50.869,0 0,31.827 56.863,0 0,9.588 -67.383,0 0,-93.218 68.049,0 0,9.589 L 0,0 z m -95.379,61.265 57.973,-6.448 -68.436,-69.567 -0.781,-7.014 74.25,-8.257 1.045,9.396 -60.088,6.683 68.566,69.551 0.782,7.015 -72.264,8.038 -1.047,-9.397 z m -35.252,27.352 13.508,-92.234 10.41,1.524 -13.51,92.235 -10.408,-1.525 z M -143.74,22.754 c 0,-21.174 -15.181,-38.22 -36.488,-38.22 -21.307,0 -36.754,17.313 -36.754,38.487 l 0,0.265 c 0,21.175 15.18,38.22 36.487,38.22 21.307,0 36.755,-17.313 36.755,-38.485 l 0,-0.267 z m -36.488,48.474 c -28.365,0 -47.674,-22.506 -47.674,-48.207 l 0,-0.267 c 0,-25.702 19.043,-47.942 47.407,-47.942 28.366,0 47.675,22.506 47.675,48.209 0.133,0.132 0.133,0.132 0,0.265 0,25.702 -19.043,47.942 -47.408,47.942 m -72.177,-62.306 -58.727,74.707 -9.855,0 0,-93.218 10.254,0 0,76.44 60.192,-76.44 8.39,0 0,93.218 -10.254,0 0,-74.707 z"
             inkscape:connector-curvature="0" /></g><g
           transform="translate(532.3247,487.0234)"
           id="g166"><path
             id="path168"
             style="fill:#2a1b19;fill-opacity:1;fill-rule:nonzero;stroke:none"
             d="M 0,0 C -0.364,1.322 -0.701,1.545 -2.111,1.545 -2.715,1.545 -3.05,1.317 -3.153,1.184 -3.257,1.047 -3.416,0.839 -3.553,0 L 0,0 z m 80.148,-22.004 8.457,23.251 -8.457,0 0,-23.251 z m -51.141,-4.645 c -7.403,0 -13.221,4.034 -15.411,10.139 -0.673,-1.915 -1.713,-3.662 -3.292,-5.27 -4.177,-4.314 -8.83,-4.869 -12.415,-4.869 -4.778,0 -8.686,1.586 -11.95,4.85 -4.464,4.464 -4.458,10.09 -4.453,15.531 l 0,1.175 c -0.005,5.441 -0.011,11.067 4.453,15.531 3.31,3.309 7.106,4.85 11.95,4.85 7.598,0 12.293,-3.63 14.766,-8.181 l 0,7.883 14.686,0 0,-25.733 c 0,-2.163 1.003,-2.163 1.666,-2.163 0.854,0 1.765,0.167 1.765,2.163 l 0,25.733 62.833,0 -4.77,-13.113 4.77,13.113 10.902,0 9.838,-27.04 0,27.04 16.998,0 c 9.887,0 15.061,-7.227 15.061,-14.367 0,-4.104 -1.768,-7.771 -4.844,-10.264 l 8.664,-16.711 -16.906,0 -4.287,9.018 0,-9.018 -25.059,0 -1.639,5.262 -6.494,0 -1.736,-5.262 -28.641,0 0,27.599 -6.258,0 0,-27.599 -14.686,0 0,9.963 c -2.221,-6.109 -8.157,-10.26 -15.511,-10.26"
             inkscape:connector-curvature="0" /></g><g
           transform="translate(628.4277,476.1807)"
           id="g170"><path
             id="path172"
             style="fill:#f0ac17;fill-opacity:1;fill-rule:nonzero;stroke:none"
             d="M 0,0 3.178,9.431 6.156,0 0,0 z m -0.396,22.833 -12.856,-35.342 9.084,0 1.736,5.262 10.871,0 1.637,-5.262 9.084,0 -12.855,35.342 -6.701,0 z m 35.238,-14.94 -4.914,0 0,7.147 4.914,0 c 2.383,0 3.773,-1.737 3.773,-3.574 0,-1.836 -1.39,-3.573 -3.773,-3.573 m 6.701,-5.66 c 2.781,1.39 5.758,4.418 5.758,9.233 0,5.807 -4.219,11.367 -12.061,11.367 l -13.998,0 0,-35.342 8.686,0 0,13.155 2.929,0 6.254,-13.155 10.077,0 -7.645,14.742 z m -51.811,20.6 -26.059,0 0,-7.743 8.686,0 0,-27.599 8.686,0 0,27.599 8.687,0 0,7.743 z m -38.317,-35.342 8.687,0 0,35.342 -8.687,0 0,-35.342 z M -62.331,0.1 c 0,-3.277 -1.886,-5.163 -4.765,-5.163 -2.879,0 -4.666,1.886 -4.666,5.163 l 0,22.733 -8.686,0 0,-22.933 c 0,-7.743 6.006,-12.707 13.352,-12.707 7.346,0 13.452,4.964 13.452,12.707 l 0,22.933 -8.687,0 0,-22.733 z m -35.883,0.496 5.212,0 0,-0.496 c 0,-1.341 -0.348,-2.781 -1.34,-3.773 -0.795,-0.844 -2.035,-1.39 -3.872,-1.39 -1.589,0 -2.78,0.645 -3.425,1.489 -0.794,1.043 -1.291,2.283 -1.291,8.736 0,6.453 0.497,7.645 1.291,8.687 0.645,0.843 1.836,1.539 3.425,1.539 2.978,0 4.368,-1.291 5.063,-3.972 l 8.736,0 c -0.844,5.808 -4.716,11.715 -13.799,11.715 -4.269,0 -7.247,-1.39 -9.828,-3.971 -3.723,-3.723 -3.574,-8.686 -3.574,-13.998 0,-5.311 -0.149,-10.274 3.574,-13.997 2.581,-2.582 5.708,-3.972 9.828,-3.972 3.872,0 7.247,0.844 10.275,3.972 2.68,2.73 3.573,6.056 3.573,11.764 l 0,4.914 -13.848,0 0,-7.247 z"
             inkscape:connector-curvature="0" /></g><path
           id="path174"
           style="fill:#2a1b19;fill-opacity:1;fill-rule:nonzero;stroke:none"
           d="m 599.225,469.993 -8.125,0 0,20.75 8.125,0 0,-20.75 z"
           inkscape:connector-curvature="0" /><g
           transform="translate(621.6289,498.627)"
           id="g176"><path
             id="path178"
             style="fill:#2a1b19;fill-opacity:1;fill-rule:nonzero;stroke:none"
             d="m 0,0 c -1.045,0 -2.035,0.548 -2.584,1.476 l -19.281,32.676 -2.014,1.592 -2.015,-1.592 L -45.176,1.476 C -45.723,0.548 -46.714,0 -47.759,0 c -0.215,0 -0.431,0.023 -0.647,0.07 -1.267,0.281 -2.211,1.343 -2.339,2.634 l -1.65,16.632 -15.799,5.453 c -1.227,0.424 -2.042,1.588 -2.021,2.886 0.021,1.297 0.874,2.433 2.114,2.816 l 36.238,11.196 0.232,0.181 -13.635,10.772 c -0.369,-0.159 -0.771,-0.243 -1.18,-0.243 -0.076,0 -0.152,0.003 -0.228,0.009 -0.969,0.073 -1.841,0.612 -2.342,1.444 l -4.572,7.588 c -0.658,1.069 -0.712,2.341 -0.13,3.381 0.558,0.999 1.632,1.619 2.802,1.619 0.38,0 0.769,-0.063 1.155,-0.19 l 8.415,-2.695 c 0.924,-0.296 1.647,-1.021 1.943,-1.945 0.149,-0.466 0.179,-0.956 0.098,-1.425 l 15.426,-12.189 15.424,12.188 c -0.08,0.469 -0.051,0.959 0.098,1.425 0.296,0.925 1.019,1.65 1.943,1.946 l 8.435,2.701 c 0.368,0.121 0.756,0.184 1.137,0.184 1.17,0 2.244,-0.621 2.803,-1.621 0.58,-1.042 0.525,-2.315 -0.148,-3.407 L 1.258,53.85 C 0.756,53.018 -0.117,52.479 -1.084,52.406 -1.16,52.4 -1.236,52.397 -1.313,52.397 c -0.41,0 -0.81,0.084 -1.181,0.243 l -13.633,-10.772 0.231,-0.181 36.238,-11.196 c 1.238,-0.383 2.092,-1.519 2.113,-2.816 0.022,-1.298 -0.795,-2.462 -2.021,-2.886 L 4.637,19.336 2.986,2.704 C 2.857,1.413 1.914,0.351 0.646,0.07 0.432,0.023 0.215,0 0,0"
             inkscape:connector-curvature="0" /></g><g
           transform="translate(624.5645,562.0244)"
           id="g180"><path
             id="path182"
             style="fill:#ce953a;fill-opacity:1;fill-rule:nonzero;stroke:none"
             d="m 0,0 -8.434,-2.702 c 0,0 0.942,-1.258 -0.865,-2.685 l -24.078,-19.025 -36.774,-11.36 17.616,-6.081 1.84,-18.544 19.567,33.159 24.069,19.016 C -5.252,-6.793 -4.248,-8 -4.248,-8 l 4.572,7.588 C 0.543,-0.056 0.396,0.13 0,0"
             inkscape:connector-curvature="0" /></g><g
           transform="translate(570.9341,562.0244)"
           id="g184"><path
             id="path186"
             style="fill:#ce953a;fill-opacity:1;fill-rule:nonzero;stroke:none"
             d="m 0,0 8.434,-2.702 c 0,0 -0.942,-1.258 0.865,-2.685 L 33.376,-24.412 70.15,-35.772 52.535,-41.853 50.695,-60.397 31.128,-27.238 7.059,-8.222 C 5.252,-6.793 4.248,-8 4.248,-8 l -4.572,7.588 C -0.543,-0.056 -0.396,0.13 0,0"
             inkscape:connector-curvature="0" /></g><g
           transform="translate(604.3105,537.6123)"
           id="g188"><path
             id="path190"
             style="fill:#f0ac17;fill-opacity:1;fill-rule:nonzero;stroke:none"
             d="M 0,0 -3.648,2.883 13.195,16.19 c 1.807,1.429 2.811,0.222 2.811,0.222 L 20.578,24 c 0.219,0.356 0.072,0.542 -0.324,0.412 L 11.82,21.71 c 0,0 0.942,-1.258 -0.865,-2.685 L -6.561,5.185 -24.078,19.025 c -1.806,1.427 -0.865,2.685 -0.865,2.685 l -8.433,2.702 c -0.397,0.13 -0.543,-0.056 -0.325,-0.412 l 4.573,-7.588 c 0,0 1.003,1.207 2.81,-0.222 L -9.474,2.884 -13.124,0 l -36.773,-11.36 17.616,-6.08 1.84,-18.545 19.566,33.159 4.314,3.408 4.313,-3.408 19.566,-33.159 1.84,18.545 17.615,6.08 L 0,0 z"
             inkscape:connector-curvature="0" /></g></g></g></g></svg>